<svg xmlns="http://www.w3.org/2000/svg" viewBox="0 0 1353.51 469.08">
  <defs>
    <style>.cls-1{fill:#1d4e78;}.cls-1,.cls-2,.cls-3,.cls-4{stroke:#1d4e78;stroke-miterlimit:10;}.cls-1,.cls-2{stroke-width:0.25px;}.cls-2{fill:#fff;}.cls-3,.cls-4{fill:none;}.cls-3{stroke-width:5px;}.cls-4{stroke-width:4px;}</style>
  </defs>
  <g id="ff">
    <path class="cls-1" d="M502.47,200.77c-67.16-1.85-71-2.87-121.49,0-26.75,1.52-28.42,22.11-30.7,32.74-7.89,36.67-3.75,65.28-.06,98.89,2.46,22.47,26,33.08,46.07,33,33.24-.1,51.6.79,83.54-.69a230,230,0,0,0,22.64-164Z" transform="translate(-32.83 -16.79)"/>
    <path class="cls-1" d="M362.35,428.7c-51.55-7.25-74.59-41.54-81.41-94.34-4.81-37.29-6.12-42.33-2.16-77,1.5-13.15,8.75-52.32,14.14-64.61,16.67-39.46,59-53.72,98.13-54.08,35.1-.94,58.94.48,89.5.17a239.81,239.81,0,0,0-14.9-22.76q-19.12,6.75-38.31,13.36a16.69,16.69,0,0,1-9.82,0c-24.15-8.11-48.15-16.58-72.24-24.84-2.74-.94-3.8-2.17-3.77-5,.17-16.43.09-22.5.09-38.93,0-1.1,59.56,21.44,79.9,28.36,2,.67,17.28-4,19.17-4.53C419.05,67,377.16,40.58,349,30.73,229.43-11.09,98.73,45,51,158.68-1.42,283.6,64.39,426,195.81,471.94c85,29.73,175.64,9.94,238.08-44.82C428.89,427.53,363,428.6,362.35,428.7Z" transform="translate(-32.83 -16.79)"/>
    <path class="cls-2" d="M167.91,132.26a363.28,363.28,0,0,0-26,48.64,3.56,3.56,0,0,1-4.55,1.84L84.76,162.56a3.55,3.55,0,0,1-2-4.89,195.55,195.55,0,0,1,33.28-47.45,3.58,3.58,0,0,1,3.9-.84l46.14,17.69A3.53,3.53,0,0,1,167.91,132.26Z" transform="translate(-32.83 -16.79)"/>
    <path class="cls-2" d="M243.71,69.76c13.64-11.18,27.1-13.82,40.92-15.31a176.17,176.17,0,0,1,36.14,2.66c2.47.43,4.24,2.53,3.36,4.81l-29.62,77.27a3.56,3.56,0,0,1-4.62,2s-81.81-27.83-81.81-32.05C208.07,101,233.68,77.42,243.71,69.76Z" transform="translate(-32.83 -16.79)"/>
    <path class="cls-2" d="M280.85,174.81l-19.78,51.6a3.56,3.56,0,0,1-4.62,2L174,196.79c-1.71-.69-9.29-3.74-13.18-6.67-3.69-2.78,22.89-54.75,29.67-52.94,4,1,11.45,3.63,13,4.23l75.2,28.84A3.55,3.55,0,0,1,280.85,174.81Z" transform="translate(-32.83 -16.79)"/>
    <path class="cls-2" d="M61.91,251.5a195.79,195.79,0,0,1,7-57.54,3.55,3.55,0,0,1,4.73-2.32l52.62,20.17a3.56,3.56,0,0,1,2.16,4.41,362.43,362.43,0,0,0-13.21,53.54,3.54,3.54,0,0,1-4.8,2.67l-46.14-17.7A3.59,3.59,0,0,1,61.91,251.5Z" transform="translate(-32.83 -16.79)"/>
    <path class="cls-2" d="M245.3,257.46a3.56,3.56,0,0,1,2.11,4.56l-19.78,51.6a3.55,3.55,0,0,1-4.62,2l-75.2-28.83c-1.57-.6-13.92-5-13.56-8.56,2-19.51,8.56-39,15.06-58.48Z" transform="translate(-32.83 -16.79)"/>
    <path class="cls-2" d="M215.23,346l-30.89,80.54c-.87,2.28-7.19,4-12.88-1.08-4.5-4-30.05-26.15-38.74-59.65-2.34-12.41-3.28-31.37-3.36-45.1,0-2.47,1.82-5.71,4.95-5.38l81.75,31.58Z" transform="translate(-32.83 -16.79)"/>
    <path class="cls-2" d="M183.08,63.67a207.24,207.24,0,0,1,53.09-14.85c3.69-.52,5.7,4.2,2.7,6.34-16.78,12-33,27.28-48,45.45a3.58,3.58,0,0,1-4.06,1L150.76,87.83a3.5,3.5,0,0,1-.83-6.18,204.26,204.26,0,0,1,33.15-18Z" transform="translate(-32.83 -16.79)"/>
    <path class="cls-2" d="M72.73,291.33l36.05,13.82a3.61,3.61,0,0,1,2.33,3.5c-1,23.53.82,45.78,5.31,65.89.8,3.6-3.85,5.76-6.25,2.91A207.79,207.79,0,0,1,68,295.38,3.51,3.51,0,0,1,72.73,291.33Z" transform="translate(-32.83 -16.79)"/>
    <path class="cls-1" d="M978.4,202.51H850.79c-3.74,0-3.75,0-3.75-3.53v-61.8h227.77c0,1,.13,1.83.13,2.69,0,20.11,0,40.23-.08,60.34a7.32,7.32,0,0,1-1.78,4.4q-35.74,40.27-71.65,80.41Q971.76,318.26,942,351.47c-2.78,3.1-5.52,6.23-8.76,9.9,2,.11,3.22.23,4.45.23H1080c5,0,4.24-.09,4.25,4.15,0,19.5,0,39,.06,58.49,0,2.3-.59,3-3,3q-119.91-.09-239.83,0c-2.53,0-3.27-.68-3.26-3.12.08-20,0-40.05.13-60.08a7.72,7.72,0,0,1,1.81-4.69q32.07-36.5,64.32-72.85,27.86-31.47,55.75-62.9,8.19-9.24,16.36-18.5C977,204.53,977.43,203.85,978.4,202.51Z" transform="translate(-32.83 -16.79)"/>
    <path class="cls-1" d="M623.81,427.5c-5.13-1.21-10.3-2.25-15.37-3.65C592.91,419.56,579,412.5,567.9,401c-9.21-9.49-15.07-20.73-18.54-33.18a116.59,116.59,0,0,1-4-31.41V140.31c0-.94.1-1.88.15-2.93h74.84v3.29q0,95.45,0,190.88c0,10.08,3.15,18.78,12,24.91a43.11,43.11,0,0,0,20.06,7.21c16.1,1.8,32.25,2.11,48.31-.5a41.06,41.06,0,0,0,18-7.19c8.7-6.37,11.37-15.25,11.35-25.24q0-19.56,0-39.12V140.91c0-3.67,0-3.67,3.86-3.67,22.65,0,45.31,0,68-.06,2.58,0,3.21.73,3.21,3.1q-.09,97,0,194c0,15.42-1.77,30.53-8.09,44.91-7.44,16.91-19.82,29.35-36.77,37.71a117.16,117.16,0,0,1-30.77,9.86c-.89.17-1.74.48-2.6.72Z" transform="translate(-32.83 -16.79)"/>
    <path class="cls-1" d="M759.85,68.69V115.2l-123.34,22c-.11-1.15-.27-2-.27-2.76,0-15.06.06-26.45,0-41.51" transform="translate(-32.83 -16.79)"/>
    <polygon class="cls-1" points="1209.46 263.96 1353.22 410.46 1245.82 410.46 1161.31 324.42 1161.31 410.46 1084.42 410.46 1084.42 120.4 1161.31 120.4 1161.31 203.5 1244.04 120.39 1352.66 120.39 1209.46 263.96"/>
    <path class="cls-3" d="M313.64,65.7c-41.18-7-66,7.77-94,43.43" transform="translate(-32.83 -16.79)"/>
    <path class="cls-3" d="M137.27,322.62c2.59,43,11.14,71.68,36.51,93.23" transform="translate(-32.83 -16.79)"/>
    <path class="cls-3" d="M155.53,226.33A238.9,238.9,0,0,0,143.09,278" transform="translate(-32.83 -16.79)"/>
    <path class="cls-3" d="M194.33,142.53c-14.48,22.2-17.83,31.15-25.87,46.81" transform="translate(-32.83 -16.79)"/>
    <path class="cls-4" d="M72.9,296.2C83,328.32,91,343.49,111.49,373.64" transform="translate(-32.83 -16.79)"/>
    <path class="cls-4" d="M75.79,196.87c-9.08,25.72-7.86,46.93-7.86,55.27" transform="translate(-32.83 -16.79)"/>
    <path class="cls-4" d="M121.9,115.55c-16.32,16.06-23.29,27.6-31.34,43.25" transform="translate(-32.83 -16.79)"/>
    <path class="cls-4" d="M228.56,54.45C194.37,64,192,63.31,155.45,85.07" transform="translate(-32.83 -16.79)"/>
  </g>
</svg>